<svg xmlns="http://www.w3.org/2000/svg" version="1.1" xmlns:xlink="http://www.w3.org/1999/xlink" xmlns:svgjs="http://svgjs.com/svgjs" width="1000" height="160" preserveAspectRatio="none" viewBox="0 0 1000 160"><g mask="url(&quot;#SvgjsMask1078&quot;)" fill="none"><rect width="1000" height="160" x="0" y="0" fill="rgba(213, 218, 221, 1)"></rect><path d="M0,243.32C49.461,247.239,103.979,253.504,144.697,225.153C185.144,196.991,195.524,143.158,211.042,96.38C225.069,54.098,233.536,11.313,230.377,-33.123C227.027,-80.245,217.862,-126.91,192.339,-166.663C164.272,-210.378,126.287,-247.504,78.969,-268.945C27.326,-292.346,-31.037,-306.819,-85.966,-292.772C-141.663,-278.528,-183.487,-235.057,-221.654,-192.064C-260.205,-148.639,-299.739,-101.746,-306.723,-44.1C-313.65,13.079,-292.658,71.473,-259.268,118.404C-228.873,161.125,-177.911,180.579,-130.677,203.337C-88.791,223.518,-46.349,239.648,0,243.32" fill="#c9cfd3"></path><path d="M1000 479.831C1058.185 471.126 1097.922 421.143 1146.452 387.884 1193.284 355.788 1248.9569999999999 335.397 1280.057 287.898 1313.763 236.41899999999998 1331.3 174.408 1326.383 113.07300000000001 1321.299 49.659000000000006 1305.628-23.945999999999998 1252.279-58.601 1198.518-93.523 1127.847-53.65100000000001 1063.852-57.46100000000001 1017.933-60.19499999999999 976.025-81.56899999999999 930.182-77.77699999999999 875.962-73.292 812.7719999999999-74.213 776.469-33.691 740.154 6.844999999999999 751.029 69.574 749.438 123.975 748.013 172.702 756.615 218.61599999999999 767.701 266.087 781.538 325.34000000000003 777.615 395.16499999999996 822.391 436.365 868.17 478.488 938.475 489.035 1000 479.831" fill="#e1e5e7"></path></g><defs><mask id="SvgjsMask1078"><rect width="1000" height="160" fill="#ffffff"></rect></mask></defs></svg>